<svg xmlns="http://www.w3.org/2000/svg" width="14" height="14" viewBox="0 0 14 14" fill="none">
  <g clip-path="url(#clip0_1002_2740)">
    <path fill-rule="evenodd" clip-rule="evenodd" d="M0.875194 10.0624C0.875194 10.1785 0.921287 10.2898 1.00333 10.3718C1.08538 10.4538 1.19666 10.4999 1.31269 10.4999L11.6316 10.4999L8.87794 13.2527C8.79579 13.3348 8.74964 13.4463 8.74964 13.5624C8.74964 13.6786 8.79579 13.79 8.87794 13.8722C8.96009 13.9543 9.07152 14.0005 9.18769 14.0005C9.30387 14.0005 9.41529 13.9543 9.49744 13.8722L12.9974 10.3722C13.0382 10.3316 13.0705 10.2833 13.0926 10.2301C13.1146 10.177 13.126 10.12 13.126 10.0624C13.126 10.0049 13.1146 9.94792 13.0926 9.89476C13.0705 9.84161 13.0382 9.79333 12.9974 9.75269L9.49744 6.25269C9.41529 6.17054 9.30387 6.12439 9.18769 6.12439C9.07152 6.12439 8.9601 6.17054 8.87794 6.25269C8.79579 6.33484 8.74964 6.44626 8.74964 6.56244C8.74964 6.67862 8.79579 6.79004 8.87794 6.87219L11.6316 9.62494L1.31269 9.62494C1.19666 9.62494 1.08538 9.67104 1.00333 9.75308C0.921287 9.83513 0.875194 9.94641 0.875194 10.0624ZM13.1252 3.93744C13.1252 4.05347 13.0791 4.16475 12.9971 4.2468C12.915 4.32885 12.8037 4.37494 12.6877 4.37494L2.36882 4.37494L5.12244 7.12769C5.2046 7.20984 5.25075 7.32126 5.25075 7.43744C5.25075 7.55362 5.2046 7.66504 5.12244 7.74719C5.04029 7.82934 4.92887 7.87549 4.81269 7.87549C4.69652 7.87549 4.5851 7.82934 4.50294 7.74719L1.00294 4.24719C0.962202 4.20655 0.929877 4.15827 0.907821 4.10512C0.885766 4.05197 0.874412 3.99499 0.874412 3.93744C0.874412 3.8799 0.885766 3.82291 0.907821 3.76976C0.929877 3.71661 0.962202 3.66833 1.00294 3.62769L4.50294 0.127692C4.5851 0.0455411 4.69652 -0.000610723 4.81269 -0.000610715C4.92887 -0.000610707 5.04029 0.0455411 5.12245 0.127692C5.2046 0.209843 5.25075 0.321263 5.25075 0.437442C5.25075 0.553621 5.2046 0.665041 5.12245 0.747192L2.36882 3.49994L12.6877 3.49994C12.8037 3.49994 12.915 3.54604 12.9971 3.62808C13.0791 3.71013 13.1252 3.82141 13.1252 3.93744Z" fill="#F3F4F6"/>
  </g>
  <defs>
    <clipPath id="clip0_1002_2740">
      <rect width="14" height="14" fill="white" transform="translate(14) rotate(90)"/>
    </clipPath>
  </defs>
</svg>