<svg width="20" height="20" viewBox="0 0 20 20" fill="none" xmlns="http://www.w3.org/2000/svg">
<g clip-path="url(#clip0_749_171)">
<path fill-rule="evenodd" clip-rule="evenodd" d="M14.375 2.5002C14.1288 2.5002 13.885 2.5487 13.6575 2.64293C13.43 2.73716 13.2233 2.87527 13.0492 3.04938C12.8751 3.22349 12.737 3.43019 12.6427 3.65767C12.5485 3.88516 12.5 4.12897 12.5 4.3752C12.5 4.62143 12.5485 4.86525 12.6427 5.09273C12.737 5.32022 12.8751 5.52692 13.0492 5.70103C13.2233 5.87514 13.43 6.01325 13.6575 6.10748C13.885 6.2017 14.1288 6.2502 14.375 6.2502C14.8723 6.2502 15.3492 6.05266 15.7008 5.70103C16.0525 5.3494 16.25 4.87248 16.25 4.3752C16.25 3.87792 16.0525 3.40101 15.7008 3.04938C15.3492 2.69775 14.8723 2.5002 14.375 2.5002ZM11.3125 3.7502C11.4559 3.04377 11.8392 2.40866 12.3973 1.95247C12.9555 1.49628 13.6542 1.24707 14.375 1.24707C15.0958 1.24707 15.7945 1.49628 16.3527 1.95247C16.9108 2.40866 17.2941 3.04377 17.4375 3.7502H20V5.0002H17.4375C17.2941 5.70663 16.9108 6.34175 16.3527 6.79794C15.7945 7.25413 15.0958 7.50334 14.375 7.50334C13.6542 7.50334 12.9555 7.25413 12.3973 6.79794C11.8392 6.34175 11.4559 5.70663 11.3125 5.0002H0V3.7502H11.3125ZM5.625 8.7502C5.12772 8.7502 4.65081 8.94775 4.29917 9.29938C3.94754 9.65101 3.75 10.1279 3.75 10.6252C3.75 11.1225 3.94754 11.5994 4.29917 11.951C4.65081 12.3027 5.12772 12.5002 5.625 12.5002C6.12228 12.5002 6.59919 12.3027 6.95083 11.951C7.30246 11.5994 7.5 11.1225 7.5 10.6252C7.5 10.1279 7.30246 9.65101 6.95083 9.29938C6.59919 8.94775 6.12228 8.7502 5.625 8.7502ZM2.5625 10.0002C2.70595 9.29377 3.08921 8.65866 3.64734 8.20247C4.20547 7.74628 4.90415 7.49707 5.625 7.49707C6.34585 7.49707 7.04453 7.74628 7.60266 8.20247C8.16079 8.65866 8.54405 9.29377 8.6875 10.0002H20V11.2502H8.6875C8.54405 11.9566 8.16079 12.5917 7.60266 13.0479C7.04453 13.5041 6.34585 13.7533 5.625 13.7533C4.90415 13.7533 4.20547 13.5041 3.64734 13.0479C3.08921 12.5917 2.70595 11.9566 2.5625 11.2502H0V10.0002H2.5625ZM14.375 15.0002C13.8777 15.0002 13.4008 15.1977 13.0492 15.5494C12.6975 15.901 12.5 16.3779 12.5 16.8752C12.5 17.3725 12.6975 17.8494 13.0492 18.201C13.4008 18.5527 13.8777 18.7502 14.375 18.7502C14.8723 18.7502 15.3492 18.5527 15.7008 18.201C16.0525 17.8494 16.25 17.3725 16.25 16.8752C16.25 16.3779 16.0525 15.901 15.7008 15.5494C15.3492 15.1977 14.8723 15.0002 14.375 15.0002ZM11.3125 16.2502C11.4559 15.5438 11.8392 14.9087 12.3973 14.4525C12.9555 13.9963 13.6542 13.7471 14.375 13.7471C15.0958 13.7471 15.7945 13.9963 16.3527 14.4525C16.9108 14.9087 17.2941 15.5438 17.4375 16.2502H20V17.5002H17.4375C17.2941 18.2066 16.9108 18.8417 16.3527 19.2979C15.7945 19.7541 15.0958 20.0033 14.375 20.0033C13.6542 20.0033 12.9555 19.7541 12.3973 19.2979C11.8392 18.8417 11.4559 18.2066 11.3125 17.5002H0V16.2502H11.3125Z" fill="white"/>
</g>
<defs>
<clipPath id="clip0_749_171">
<rect width="20" height="20" fill="white"/>
</clipPath>
</defs>
</svg>
