<svg width="16" height="16" viewBox="0 0 16 16" fill="none" xmlns="http://www.w3.org/2000/svg">
<path d="M4.00033 1.33301H10.0003C10.3539 1.33301 10.6931 1.47348 10.9431 1.72353C11.1932 1.97358 11.3337 2.31272 11.3337 2.66634V3.33301C11.3337 3.50982 11.2634 3.67939 11.1384 3.80441C11.0134 3.92944 10.8438 3.99967 10.667 3.99967C10.4902 3.99967 10.3206 3.92944 10.1956 3.80441C10.0706 3.67939 10.0003 3.50982 10.0003 3.33301V2.66634H4.00033V13.333H10.0003V12.6663C10.0003 12.4895 10.0706 12.32 10.1956 12.1949C10.3206 12.0699 10.4902 11.9997 10.667 11.9997C10.8438 11.9997 11.0134 12.0699 11.1384 12.1949C11.2634 12.32 11.3337 12.4895 11.3337 12.6663V13.333C11.3337 13.6866 11.1932 14.0258 10.9431 14.2758C10.6931 14.5259 10.3539 14.6663 10.0003 14.6663H4.00033C3.6467 14.6663 3.30756 14.5259 3.05752 14.2758C2.80747 14.0258 2.66699 13.6866 2.66699 13.333V2.66634C2.66699 2.31272 2.80747 1.97358 3.05752 1.72353C3.30756 1.47348 3.6467 1.33301 4.00033 1.33301Z" fill="#F3F4F6"/>
<path d="M4.00033 1.33301H10.0003C10.3539 1.33301 10.6931 1.47348 10.9431 1.72353C11.1932 1.97358 11.3337 2.31272 11.3337 2.66634V3.33301C11.3337 3.50982 11.2634 3.67939 11.1384 3.80441C11.0134 3.92944 10.8438 3.99967 10.667 3.99967C10.4902 3.99967 10.3206 3.92944 10.1956 3.80441C10.0706 3.67939 10.0003 3.50982 10.0003 3.33301V2.66634H4.00033V13.333H10.0003V12.6663C10.0003 12.4895 10.0706 12.32 10.1956 12.1949C10.3206 12.0699 10.4902 11.9997 10.667 11.9997C10.8438 11.9997 11.0134 12.0699 11.1384 12.1949C11.2634 12.32 11.3337 12.4895 11.3337 12.6663V13.333C11.3337 13.6866 11.1932 14.0258 10.9431 14.2758C10.6931 14.5259 10.3539 14.6663 10.0003 14.6663H4.00033C3.6467 14.6663 3.30756 14.5259 3.05752 14.2758C2.80747 14.0258 2.66699 13.6866 2.66699 13.333V2.66634C2.66699 2.31272 2.80747 1.97358 3.05752 1.72353C3.30756 1.47348 3.6467 1.33301 4.00033 1.33301Z" fill="#F3F4F6"/>
<path d="M9.52697 10.8634C9.26697 11.1234 8.84697 11.1234 8.58697 10.8634L6.19497 8.47142C6.06999 8.3464 5.99977 8.17686 5.99977 8.00008C5.99977 7.82331 6.06999 7.65377 6.19497 7.52875L8.58697 5.13675C8.71369 5.02221 8.87958 4.96075 9.05034 4.96506C9.22111 4.96937 9.38369 5.03912 9.50447 5.15991C9.62526 5.2807 9.69502 5.44327 9.69933 5.61404C9.70364 5.7848 9.64217 5.95069 9.52763 6.07742L8.27697 7.33342H14.057C14.2338 7.33342 14.4033 7.40366 14.5284 7.52868C14.6534 7.6537 14.7236 7.82327 14.7236 8.00008C14.7236 8.17689 14.6534 8.34646 14.5284 8.47149C14.4033 8.59651 14.2338 8.66675 14.057 8.66675H8.27697L9.52763 9.92275C9.65191 10.0478 9.72162 10.2169 9.72149 10.3932C9.72137 10.5695 9.65142 10.7386 9.52697 10.8634Z" fill="#F3F4F6"/>
</svg>