<svg width="32" height="32" viewBox="0 0 32 32" fill="none" xmlns="http://www.w3.org/2000/svg">
<circle cx="16" cy="16" r="16" fill="#F7F7F7" fill-opacity="0.2"/>
<path opacity="0.2" d="M16.0001 7.4668C17.1317 7.4668 18.217 7.91632 19.0171 8.71647C19.8173 9.51663 20.2668 10.6019 20.2668 11.7335C20.2668 12.8651 19.8173 13.9503 19.0171 14.7505C18.217 15.5506 17.1317 16.0001 16.0001 16.0001C14.8685 16.0001 13.7833 15.5506 12.9831 14.7505C12.183 13.9503 11.7335 12.8651 11.7335 11.7335C11.7335 10.6019 12.183 9.51663 12.9831 8.71647C13.7833 7.91632 14.8685 7.4668 16.0001 7.4668ZM16.0001 18.1335C20.7148 18.1335 24.5335 20.0428 24.5335 22.4001V24.5335H7.4668V22.4001C7.4668 20.0428 11.2855 18.1335 16.0001 18.1335Z" fill="white"/>
</svg>
